<svg xmlns="http://www.w3.org/2000/svg" width="32" height="40" viewBox="0 0 32 40"><path d="M23.393,40H8.656c-3.342,0-5.644-.876-7.036-2.677C.164,35.44-.3,32.6.189,28.629L1.572,16.24a8.568,8.568,0,0,1,2.121-4.824A4.571,4.571,0,0,1,6.992,10h.138a1.527,1.527,0,0,1,0-.452C7.33,4.195,11.23,0,16.008,0s8.68,4.194,8.881,9.549h-.046a1.148,1.148,0,0,1-.078.452h.278a4.474,4.474,0,0,1,3.248,1.462,9.181,9.181,0,0,1,2.187,4.777l1.368,12.39c.453,3.645-.089,6.491-1.611,8.46C28.762,38.994,26.4,40,23.393,40ZM21.129,16.659a1.71,1.71,0,0,0-1.571,1.818,1.711,1.711,0,0,0,1.571,1.82,1.711,1.711,0,0,0,1.571-1.82A1.71,1.71,0,0,0,21.129,16.659Zm-10.29,0a1.71,1.71,0,0,0-1.571,1.818,1.711,1.711,0,0,0,1.571,1.82,1.711,1.711,0,0,0,1.571-1.82A1.71,1.71,0,0,0,10.839,16.659ZM15.94,2.6c-3.415,0-6.193,3.115-6.193,6.944a1.423,1.423,0,0,1,0,.452H22.209a1.452,1.452,0,0,1-.077-.452C22.132,5.72,19.354,2.6,15.94,2.6Z" fill="#20262e"/></svg>