<svg xmlns="http://www.w3.org/2000/svg" width="64" height="64" viewBox="0 0 64 64"><g transform="translate(0 0)"><path d="M134.421,96.405a3.84,3.84,0,1,0,3.84,3.84A3.84,3.84,0,0,0,134.421,96.405Zm14.72,7.744a24.288,24.288,0,0,0-1.472-7.776,15.808,15.808,0,0,0-3.712-5.664,15.04,15.04,0,0,0-5.664-3.68,23.36,23.36,0,0,0-7.776-1.5c-3.392-.192-4.48-.192-13.184-.192s-9.792,0-13.184.192a23.36,23.36,0,0,0-7.776,1.5,15.3,15.3,0,0,0-5.664,3.68,15.04,15.04,0,0,0-3.68,5.664,23.36,23.36,0,0,0-1.5,7.776c-.192,3.392-.192,4.48-.192,13.184s0,9.792.192,13.184a23.36,23.36,0,0,0,1.5,7.776,15.04,15.04,0,0,0,3.68,5.664,15.3,15.3,0,0,0,5.664,3.68,23.36,23.36,0,0,0,7.776,1.5c3.392.192,4.48.192,13.184.192s9.792,0,13.184-.192a23.359,23.359,0,0,0,7.776-1.5,15.04,15.04,0,0,0,5.664-3.68,15.52,15.52,0,0,0,3.712-5.664,24.288,24.288,0,0,0,1.472-7.776c0-3.392.192-4.48.192-13.184s0-9.792-.192-13.184Zm-5.76,25.984a17.952,17.952,0,0,1-1.088,5.952,9.792,9.792,0,0,1-2.4,3.68,10.208,10.208,0,0,1-3.68,2.4,17.952,17.952,0,0,1-5.952,1.088c-3.2.16-4.384.192-12.8.192s-9.6,0-12.8-.192a18.336,18.336,0,0,1-6.208-.96,10.464,10.464,0,0,1-3.52-2.4,9.6,9.6,0,0,1-2.368-3.68,17.728,17.728,0,0,1-1.28-6.08c0-3.2-.192-4.384-.192-12.8s0-9.6.192-12.8a17.728,17.728,0,0,1,1.12-6.08,9.6,9.6,0,0,1,2.528-3.52,10.048,10.048,0,0,1,3.52-2.56,18.336,18.336,0,0,1,6.08-1.088c3.2,0,4.384-.192,12.8-.192s9.6,0,12.8.192a17.952,17.952,0,0,1,5.952,1.088,11.7,11.7,0,0,1,6.208,6.08,17.952,17.952,0,0,1,1.088,6.08c.16,3.2.192,4.384.192,12.8S143.541,126.933,143.381,130.133Zm-26.048-29.216a16.384,16.384,0,1,0,11.638,4.787A16.416,16.416,0,0,0,117.333,100.917Zm0,27.072a10.656,10.656,0,1,1,10.656-10.656,10.656,10.656,0,0,1-10.656,10.656Z" transform="translate(-85.333 -85.333)" fill="#9e9fa5"/></g></svg>