<svg xmlns="http://www.w3.org/2000/svg" width="64" height="63.995" viewBox="0 0 64 63.995"><g transform="translate(0)"><path d="M116.493,71.174l-1.105-1.105a19.7,19.7,0,0,0-2.984-2.321A33.2,33.2,0,0,0,100.8,62.663,28.394,28.394,0,0,0,96.378,62H93.835a13.373,13.373,0,0,0-2.1.111,30.5,30.5,0,0,0-4.421.663,31.093,31.093,0,0,0-11.605,4.974l-2.984,2.321-1.547,1.547a31.889,31.889,0,0,0,.442,45.206l1.105,1.105a19.709,19.709,0,0,0,2.984,2.321A31.1,31.1,0,0,0,86.209,125a29.424,29.424,0,0,0,4.311.774c1.216.111,2.321.221,3.537.221h.221c1.105,0,2.211-.11,3.316-.221,1.437-.221,2.984-.442,4.311-.774a31.991,31.991,0,0,0,10.39-4.863l2.984-2.321A32,32,0,0,0,126,93.611a31.2,31.2,0,0,0-9.505-22.437Zm5.858,21H106.546a101.727,101.727,0,0,0-1.768-15.695,34.171,34.171,0,0,0,7.737-3.979,28.516,28.516,0,0,1,9.837,19.674Zm-20.89,18.569a36.1,36.1,0,0,0-7.737-.884,31.184,31.184,0,0,0-7.184.884,107.07,107.07,0,0,1-1.216-14.811h17.242a82.016,82.016,0,0,1-1.105,14.811ZM87.093,77.474a28.622,28.622,0,0,0,6.963.774h.221a27.437,27.437,0,0,0,6.742-.774,104.9,104.9,0,0,1,1.658,14.7H85.435a106.8,106.8,0,0,1,1.658-14.7Zm22.216-7.295A23.819,23.819,0,0,1,104,72.832c-.553-1.99-1.105-3.979-1.658-5.858a24.777,24.777,0,0,1,6.963,3.205ZM93.835,65.647h.221c1.326,0,2.653.111,3.869.221q1.326,3.813,2.321,7.958a25.992,25.992,0,0,1-5.968.663h-.221a28.7,28.7,0,0,1-6.19-.663q.995-4.145,2.321-7.958c1.216-.11,2.432-.221,3.647-.221Zm-8.068,1.326c-.553,1.879-1.105,3.868-1.658,5.858A23.819,23.819,0,0,1,78.8,70.179,24.777,24.777,0,0,1,85.767,66.974ZM75.709,72.5a34.167,34.167,0,0,0,7.737,3.979,104.922,104.922,0,0,0-1.768,15.695H65.761A28.2,28.2,0,0,1,75.709,72.5ZM65.761,95.932H81.567a93.726,93.726,0,0,0,1.326,15.916,34.179,34.179,0,0,0-7.184,3.758,28.2,28.2,0,0,1-9.948-19.674ZM78.8,117.927a24.071,24.071,0,0,1,4.753-2.432,41.349,41.349,0,0,0,1.326,5.305A23.62,23.62,0,0,1,78.8,117.927Zm15.474,4.532h-.221a23.425,23.425,0,0,1-4.863-.442,54.92,54.92,0,0,1-1.879-7.626,25.962,25.962,0,0,1,6.632-.774h.221a33.127,33.127,0,0,1,6.742.774c-.553,2.653-1.216,5.195-1.879,7.626C97.372,122.237,95.825,122.348,94.277,122.458Zm8.953-1.547,1.326-5.305a27.559,27.559,0,0,1,4.753,2.432,34.212,34.212,0,0,1-6.079,2.874Zm9.174-5.305a29.7,29.7,0,0,0-7.184-3.758,93.727,93.727,0,0,0,1.326-15.916h15.805a28.2,28.2,0,0,1-9.948,19.674Z" transform="translate(-62.001 -62)" fill="#9e9fa5"/></g></svg>