<svg xmlns="http://www.w3.org/2000/svg" width="64" height="57.487" viewBox="0 0 64 57.487"><g transform="translate(0 0)"><path d="M123.274,127.8a7.323,7.323,0,0,0-2.3.549h-.01c-.7.278-4.038,1.682-9.11,3.809l-18.175,7.655c-13.042,5.49-25.862,10.9-25.862,10.9l.153-.059a8,8,0,0,0-1.807.923,5,5,0,0,0-1.443,1.4,4.09,4.09,0,0,0-.682,2.733,4.96,4.96,0,0,0,2.2,3.432,7.306,7.306,0,0,0,1.635.874h.02l12.022,4.05c.539,1.731,3.664,12,4.415,14.369a8.833,8.833,0,0,0,1.413,2.972,3.507,3.507,0,0,0,.933.864,2.755,2.755,0,0,0,.606.261l-.123-.03a.808.808,0,0,1,.094.049,2.345,2.345,0,0,0,.291.057A4.074,4.074,0,0,0,90.978,182l.086-.069,7.1-6.463,11.9,9.127.271.116a6.311,6.311,0,0,0,6.318-.586,6.431,6.431,0,0,0,1.856-2.452l.086-.222,9.193-47.1a6.753,6.753,0,0,0,.039-3.307,4.449,4.449,0,0,0-1.923-2.578,4.609,4.609,0,0,0-2.627-.665Zm-.249,5.047a1.414,1.414,0,0,1-.049.436v.027l-9.107,46.608a1.081,1.081,0,0,1-.288.357c-.192.153-.345.249-1.145-.069L97.885,169.052l-8.79,8.012,1.847-11.793,23.774-22.159c.98-.911.652-1.1.652-1.1.069-1.118-1.48-.327-1.48-.327L83.91,160.252l-.01-.049-14.369-4.838v-.01l-.037-.007a.665.665,0,0,0,.074-.03l.079-.039.076-.027s12.83-5.407,25.872-10.9c6.53-2.75,13.108-5.52,18.168-7.657s8.8-3.683,9.011-3.767.106-.079.251-.079Z" transform="translate(-64.012 -127.796)" fill="#9e9fa5"/></g></svg>