<svg xmlns="http://www.w3.org/2000/svg" width="64" height="64.5" viewBox="0 0 64 64.5"><g transform="translate(0)"><path d="M114.184,105.214a18.988,18.988,0,0,1,4.063,1.833,18.039,18.039,0,0,1,3.729,2.208,1.776,1.776,0,0,1,.083.625,8.781,8.781,0,0,1-.708,3.167,5.586,5.586,0,0,1-2.958,2.729,9.867,9.867,0,0,1-4.25,1.1q-2.375,0-7.917-2.583a23.778,23.778,0,0,1-7.083-4.917,54.9,54.9,0,0,1-6.167-7.708q-3-4.458-2.958-8.083v-.333A9.208,9.208,0,0,1,93.1,86.672a3.152,3.152,0,0,1,2.167-.917,6.63,6.63,0,0,1,.75.063,6.75,6.75,0,0,0,.792.063,1.71,1.71,0,0,1,1.1.271,3.014,3.014,0,0,1,.646,1.146q.333.833,1.375,3.667a24.357,24.357,0,0,1,1.042,3.125,4.228,4.228,0,0,1-1.437,2.4Q98.1,98.006,98.1,98.422a1.192,1.192,0,0,0,.208.625,18.76,18.76,0,0,0,4.25,5.708,26.568,26.568,0,0,0,6.292,4.208,1.849,1.849,0,0,0,.917.292q.625,0,2.25-2.021t2.167-2.021ZM105.725,127.3a25.464,25.464,0,0,0,10.146-2.083,25.766,25.766,0,0,0,13.937-13.937,25.747,25.747,0,0,0,0-20.292,25.766,25.766,0,0,0-13.937-13.937,25.747,25.747,0,0,0-20.292,0A25.766,25.766,0,0,0,81.642,90.985a25.909,25.909,0,0,0,2.917,25.479l-3.292,9.708,10.083-3.208a25.621,25.621,0,0,0,14.375,4.333Zm0-57.583a30.528,30.528,0,0,1,12.188,2.5,31.042,31.042,0,0,1,16.729,16.729,30.957,30.957,0,0,1,0,24.375,31.042,31.042,0,0,1-16.729,16.729,30.528,30.528,0,0,1-12.188,2.5,30.935,30.935,0,0,1-15.208-3.917l-17.375,5.583,5.667-16.875a31.235,31.235,0,0,1-2-28.4A31.042,31.042,0,0,1,93.538,72.214a30.527,30.527,0,0,1,12.187-2.5Z" transform="translate(-73.142 -69.714)" fill="#9e9fa5"/></g></svg>